<svg xmlns="http://www.w3.org/2000/svg" xmlns:xlink="http://www.w3.org/1999/xlink" width="70" zoomAndPan="magnify" viewBox="0 0 52.5 52.499999" height="70" preserveAspectRatio="xMidYMid meet" version="1.0"><defs><clipPath id="id1"><path d="M 35 30 L 51 30 L 51 50.128906 L 35 50.128906 Z M 35 30 " clip-rule="nonzero"/></clipPath><clipPath id="id2"><path d="M 1.121094 5 L 37 5 L 37 12 L 1.121094 12 Z M 1.121094 5 " clip-rule="nonzero"/></clipPath><clipPath id="id3"><path d="M 14 2.128906 L 23 2.128906 L 23 7 L 14 7 Z M 14 2.128906 " clip-rule="nonzero"/></clipPath></defs><path fill="rgb(15.689087%, 59.999084%, 34.509277%)" d="M 44.347656 31.007812 C 44.324219 31.007812 44.304688 31.007812 44.28125 31.003906 L 36.472656 30.117188 C 36.230469 30.089844 36.035156 29.910156 35.984375 29.675781 C 35.9375 29.441406 36.042969 29.199219 36.25 29.082031 L 38.132812 27.984375 L 35.835938 24.421875 C 35.445312 23.792969 35.066406 23.253906 34.699219 22.8125 C 34.503906 22.574219 34.539062 22.21875 34.777344 22.023438 C 35.015625 21.828125 35.367188 21.863281 35.566406 22.101562 C 35.964844 22.585938 36.375 23.164062 36.785156 23.828125 L 39.390625 27.867188 C 39.472656 27.996094 39.5 28.152344 39.464844 28.300781 C 39.429688 28.449219 39.332031 28.574219 39.199219 28.652344 L 38.269531 29.195312 L 44.003906 29.851562 L 46.265625 24.878906 L 45.5 25.304688 C 45.234375 25.453125 44.894531 25.359375 44.742188 25.097656 C 44.097656 23.992188 43.347656 22.824219 42.832031 22.039062 C 42.601562 21.6875 42.214844 21.480469 41.796875 21.480469 L 33.574219 21.480469 C 31.726562 21.480469 30.703125 21.933594 29.8125 23.15625 L 28.039062 25.800781 L 31.398438 27.789062 C 32.28125 28.308594 33.398438 28.039062 33.945312 27.179688 C 34.109375 26.917969 34.453125 26.839844 34.714844 27.003906 C 34.976562 27.167969 35.054688 27.511719 34.890625 27.773438 C 34.019531 29.148438 32.234375 29.578125 30.828125 28.746094 L 26.957031 26.460938 C 26.828125 26.382812 26.730469 26.253906 26.699219 26.105469 C 26.664062 25.957031 26.691406 25.800781 26.777344 25.671875 L 28.890625 22.519531 C 30.015625 20.980469 31.367188 20.363281 33.574219 20.363281 L 41.796875 20.363281 C 42.59375 20.363281 43.332031 20.761719 43.769531 21.425781 C 44.222656 22.113281 44.851562 23.085938 45.433594 24.0625 L 47.207031 23.082031 C 47.417969 22.964844 47.679688 22.996094 47.859375 23.15625 C 48.035156 23.320312 48.089844 23.578125 47.988281 23.796875 L 44.855469 30.683594 C 44.765625 30.882812 44.5625 31.007812 44.347656 31.007812 " fill-opacity="1" fill-rule="nonzero"/><path fill="rgb(15.689087%, 59.999084%, 34.509277%)" d="M 33.5 47.148438 C 33.484375 47.148438 33.472656 47.148438 33.460938 47.148438 L 29.660156 46.902344 C 27.761719 46.703125 26.546875 45.847656 25.445312 43.945312 L 21.332031 36.859375 C 20.933594 36.171875 20.910156 35.335938 21.269531 34.625 C 21.640625 33.894531 22.171875 32.871094 22.734375 31.875 L 20.992188 30.839844 C 20.785156 30.714844 20.679688 30.476562 20.730469 30.238281 C 20.785156 30.003906 20.980469 29.832031 21.222656 29.804688 L 28.847656 28.996094 C 29.09375 28.96875 29.328125 29.105469 29.421875 29.332031 L 32.484375 36.582031 C 32.578125 36.800781 32.519531 37.054688 32.339844 37.214844 C 32.160156 37.371094 31.898438 37.398438 31.691406 37.28125 L 29.792969 36.207031 L 27.84375 39.964844 C 27.46875 40.660156 27.175781 41.289062 26.96875 41.855469 C 26.867188 42.144531 26.542969 42.296875 26.253906 42.191406 C 25.960938 42.085938 25.8125 41.765625 25.917969 41.476562 C 26.140625 40.859375 26.457031 40.175781 26.851562 39.445312 L 29.066406 35.179688 C 29.136719 35.046875 29.257812 34.941406 29.40625 34.902344 C 29.550781 34.859375 29.707031 34.875 29.839844 34.949219 L 30.8125 35.5 L 28.550781 30.148438 L 23.007812 30.738281 L 23.777344 31.195312 C 24.039062 31.351562 24.128906 31.6875 23.976562 31.953125 C 23.335938 33.066406 22.695312 34.296875 22.269531 35.128906 C 22.082031 35.503906 22.09375 35.941406 22.304688 36.300781 L 26.414062 43.386719 C 27.339844 44.980469 28.246094 45.632812 29.753906 45.792969 L 32.945312 45.996094 L 32.992188 42.105469 C 33.003906 41.089844 32.210938 40.257812 31.191406 40.21875 C 30.882812 40.207031 30.640625 39.949219 30.652344 39.640625 C 30.664062 39.332031 30.90625 39.09375 31.234375 39.105469 C 32.867188 39.167969 34.132812 40.492188 34.113281 42.121094 L 34.058594 46.597656 C 34.054688 46.75 33.988281 46.894531 33.878906 47 C 33.773438 47.097656 33.636719 47.148438 33.5 47.148438 " fill-opacity="1" fill-rule="nonzero"/><g clip-path="url(#id1)"><path fill="rgb(15.689087%, 59.999084%, 34.509277%)" d="M 40.289062 50.101562 C 40.109375 50.101562 39.9375 50.015625 39.832031 49.863281 L 35.335938 43.53125 C 35.195312 43.332031 35.203125 43.0625 35.351562 42.867188 L 40.101562 36.773438 C 40.25 36.585938 40.5 36.507812 40.726562 36.585938 C 40.953125 36.660156 41.105469 36.871094 41.105469 37.109375 L 41.121094 39.28125 L 45.367188 39.082031 C 45.691406 39.074219 45.941406 39.304688 45.953125 39.613281 C 45.96875 39.921875 45.730469 40.183594 45.421875 40.195312 L 40.589844 40.421875 C 40.4375 40.425781 40.289062 40.371094 40.179688 40.269531 C 40.066406 40.164062 40.003906 40.019531 40.003906 39.867188 L 39.996094 38.730469 L 36.496094 43.226562 L 39.753906 47.824219 L 39.769531 46.972656 C 39.773438 46.667969 40.023438 46.421875 40.328125 46.421875 C 41.621094 46.417969 43.007812 46.355469 43.945312 46.304688 C 44.363281 46.28125 44.738281 46.050781 44.949219 45.6875 L 49.058594 38.605469 C 49.984375 37.011719 50.097656 35.902344 49.480469 34.519531 L 48.066406 31.671875 L 44.65625 33.578125 C 43.765625 34.074219 43.4375 35.171875 43.914062 36.070312 C 44.058594 36.34375 43.953125 36.683594 43.679688 36.824219 C 43.40625 36.96875 43.066406 36.863281 42.921875 36.59375 C 42.160156 35.152344 42.683594 33.398438 44.105469 32.605469 L 48.03125 30.410156 C 48.167969 30.335938 48.328125 30.320312 48.472656 30.363281 C 48.617188 30.410156 48.742188 30.515625 48.808594 30.648438 L 50.5 34.050781 C 51.273438 35.78125 51.132812 37.257812 50.03125 39.160156 L 45.917969 46.246094 C 45.519531 46.9375 44.804688 47.375 44.003906 47.417969 C 43.1875 47.460938 42.027344 47.515625 40.882812 47.53125 L 40.851562 49.550781 C 40.847656 49.792969 40.6875 50.003906 40.457031 50.074219 C 40.402344 50.09375 40.34375 50.101562 40.289062 50.101562 " fill-opacity="1" fill-rule="nonzero"/></g><path fill="rgb(15.689087%, 59.999084%, 34.509277%)" d="M 20.191406 38.796875 L 9.839844 38.796875 C 8.726562 38.796875 7.789062 37.96875 7.664062 36.867188 L 4.371094 11.136719 C 4.332031 10.832031 4.550781 10.550781 4.859375 10.511719 C 5.167969 10.476562 5.445312 10.691406 5.484375 10.996094 L 8.777344 36.734375 C 8.839844 37.277344 9.296875 37.679688 9.839844 37.679688 L 20.191406 37.679688 C 20.5 37.679688 20.753906 37.929688 20.753906 38.242188 C 20.753906 38.546875 20.5 38.796875 20.191406 38.796875 " fill-opacity="1" fill-rule="nonzero"/><path fill="rgb(15.689087%, 59.999084%, 34.509277%)" d="M 31.835938 17.878906 C 31.808594 17.878906 31.785156 17.878906 31.757812 17.875 C 31.453125 17.835938 31.238281 17.550781 31.28125 17.246094 L 32.136719 10.988281 C 32.179688 10.6875 32.457031 10.46875 32.769531 10.515625 C 33.074219 10.554688 33.289062 10.835938 33.246094 11.140625 L 32.390625 17.398438 C 32.351562 17.675781 32.113281 17.878906 31.835938 17.878906 " fill-opacity="1" fill-rule="nonzero"/><g clip-path="url(#id2)"><path fill="rgb(15.689087%, 59.999084%, 34.509277%)" d="M 33.390625 11.621094 L 29.664062 11.621094 C 29.355469 11.621094 29.105469 11.375 29.105469 11.066406 C 29.105469 10.757812 29.355469 10.507812 29.664062 10.507812 L 33.390625 10.507812 C 34.4375 10.507812 35.289062 9.660156 35.289062 8.617188 C 35.289062 7.574219 34.4375 6.726562 33.390625 6.726562 L 4.230469 6.726562 C 3.183594 6.726562 2.332031 7.574219 2.332031 8.617188 C 2.332031 9.660156 3.183594 10.507812 4.230469 10.507812 L 18.808594 10.507812 C 19.121094 10.507812 19.371094 10.757812 19.371094 11.066406 C 19.371094 11.375 19.121094 11.621094 18.808594 11.621094 L 4.230469 11.621094 C 2.5625 11.621094 1.207031 10.273438 1.207031 8.617188 C 1.207031 6.957031 2.5625 5.609375 4.230469 5.609375 L 33.390625 5.609375 C 35.058594 5.609375 36.414062 6.957031 36.414062 8.617188 C 36.414062 10.273438 35.058594 11.621094 33.390625 11.621094 " fill-opacity="1" fill-rule="nonzero"/></g><g clip-path="url(#id3)"><path fill="rgb(15.689087%, 59.999084%, 34.509277%)" d="M 22.066406 6.726562 C 21.753906 6.726562 21.503906 6.476562 21.503906 6.167969 L 21.503906 3.777344 C 21.503906 3.46875 21.253906 3.21875 20.945312 3.21875 L 16.675781 3.21875 C 16.367188 3.21875 16.117188 3.46875 16.117188 3.777344 L 16.117188 6.167969 C 16.117188 6.476562 15.867188 6.726562 15.558594 6.726562 C 15.246094 6.726562 14.996094 6.476562 14.996094 6.167969 L 14.996094 3.777344 C 14.996094 2.851562 15.75 2.101562 16.675781 2.101562 L 20.945312 2.101562 C 21.871094 2.101562 22.625 2.851562 22.625 3.777344 L 22.625 6.167969 C 22.625 6.476562 22.375 6.726562 22.066406 6.726562 " fill-opacity="1" fill-rule="nonzero"/></g></svg>