<svg xmlns="http://www.w3.org/2000/svg" xmlns:xlink="http://www.w3.org/1999/xlink" width="70" zoomAndPan="magnify" viewBox="0 0 52.5 52.499999" height="70" preserveAspectRatio="xMidYMid meet" version="1.0"><defs><clipPath id="id1"><path d="M 0 0 L 52.003906 0 L 52.003906 52.003906 L 0 52.003906 Z M 0 0 " clip-rule="nonzero"/></clipPath><clipPath id="id2"><path d="M 3.6875 31 L 12 31 L 12 40 L 3.6875 40 Z M 3.6875 31 " clip-rule="nonzero"/></clipPath><clipPath id="id3"><path d="M 19 11.640625 L 37 11.640625 L 37 40 L 19 40 Z M 19 11.640625 " clip-rule="nonzero"/></clipPath><clipPath id="id4"><path d="M 36 28 L 48.6875 28 L 48.6875 40.890625 L 36 40.890625 Z M 36 28 " clip-rule="nonzero"/></clipPath></defs><g clip-path="url(#id1)"><path fill="rgb(100%, 100%, 100%)" d="M 0 0 L 52.5 0 L 52.5 60 L 0 60 Z M 0 0 " fill-opacity="1" fill-rule="nonzero"/><path fill="rgb(100%, 100%, 100%)" d="M 0 0 L 52.5 0 L 52.5 52.5 L 0 52.5 Z M 0 0 " fill-opacity="1" fill-rule="nonzero"/><path fill="rgb(100%, 100%, 100%)" d="M 0 0 L 52.5 0 L 52.5 52.5 L 0 52.5 Z M 0 0 " fill-opacity="1" fill-rule="nonzero"/><path fill="rgb(100%, 100%, 100%)" d="M 0 0 L 52.5 0 L 52.5 52.5 L 0 52.5 Z M 0 0 " fill-opacity="1" fill-rule="nonzero"/></g><path fill="rgb(100%, 87.059021%, 34.899902%)" d="M 35.183594 22.617188 C 35.910156 22.890625 36.75 23.507812 36.933594 24.421875 C 37.042969 24.960938 36.941406 25.492188 36.648438 25.917969 C 36.355469 26.34375 35.882812 26.636719 35.355469 26.722656 C 33.867188 26.96875 32.621094 28.097656 31.847656 29.898438 C 31.832031 29.925781 31.824219 29.953125 31.8125 29.972656 C 31.578125 30.496094 31.339844 30.949219 31.09375 31.339844 L 31.152344 31.398438 C 32.355469 32.683594 33.8125 33.367188 35.28125 33.398438 C 35.597656 33.75 35.933594 34.121094 36.273438 34.503906 L 41.957031 28.796875 C 41.628906 28.4375 41.3125 28.082031 41.019531 27.742188 C 41.019531 27.6875 41.019531 27.632812 41.019531 27.578125 C 41.148438 26.6875 40.875 25.644531 40.582031 24.789062 C 40.445312 24.398438 39.28125 21.488281 41.085938 19.121094 C 41.40625 18.703125 41.421875 18.078125 40.863281 17.679688 C 40.664062 17.535156 40.410156 17.480469 40.152344 17.480469 C 39.824219 17.480469 39.488281 17.566406 39.25 17.667969 C 37.917969 18.222656 36.839844 19.738281 36.886719 21.179688 C 36.886719 21.1875 36.875 21.207031 36.851562 21.234375 L 36.714844 21.105469 L 31.589844 15.628906 L 31.589844 19.152344 L 32.960938 20.613281 C 32.777344 20.730469 32.597656 20.867188 32.414062 21.015625 L 31.589844 20.136719 L 31.589844 22.71875 C 32.191406 22.464844 32.863281 22.328125 33.550781 22.328125 C 34.128906 22.328125 34.679688 22.425781 35.183594 22.617188 " fill-opacity="1" fill-rule="nonzero"/><g clip-path="url(#id2)"><path fill="rgb(100%, 87.059021%, 34.899902%)" d="M 11.203125 37.597656 L 5.324219 31.691406 C 4.667969 32.289062 4.097656 32.746094 3.710938 32.941406 L 10.148438 39.015625 C 10.378906 38.652344 10.75 38.160156 11.203125 37.597656 " fill-opacity="1" fill-rule="nonzero"/></g><path fill="rgb(100%, 87.059021%, 34.899902%)" d="M 8.414062 28.539062 L 14.097656 34.242188 C 14.359375 33.953125 14.613281 33.667969 14.859375 33.398438 C 16.328125 33.367188 17.785156 32.683594 18.988281 31.398438 L 19.324219 31.070312 C 18.894531 30.140625 18.667969 29.082031 18.664062 27.949219 L 18.53125 25.003906 C 18.511719 24.871094 18.5 24.742188 18.5 24.617188 L 18.5 20.191406 L 17.726562 21.015625 C 17.542969 20.867188 17.363281 20.734375 17.179688 20.613281 L 18.5 19.203125 L 18.5 17.035156 C 18.5 15.867188 19.375 14.917969 20.445312 14.917969 C 20.6875 14.917969 20.917969 14.96875 21.128906 15.054688 L 21.128906 13.847656 C 21.128906 13.804688 21.132812 13.765625 21.136719 13.726562 C 21.078125 13.71875 21.023438 13.714844 20.964844 13.714844 C 20.582031 13.714844 20.175781 13.886719 19.863281 14.21875 L 13.425781 21.105469 L 13.289062 21.234375 C 13.265625 21.207031 13.25 21.1875 13.25 21.179688 C 13.300781 19.738281 12.222656 18.222656 10.890625 17.667969 C 10.652344 17.566406 10.316406 17.480469 9.988281 17.480469 C 9.730469 17.480469 9.476562 17.535156 9.273438 17.679688 C 8.71875 18.078125 8.734375 18.703125 9.050781 19.121094 C 10.859375 21.488281 9.695312 24.398438 9.558594 24.789062 C 9.261719 25.644531 8.988281 26.6875 9.121094 27.578125 C 9.121094 27.632812 9.121094 27.6875 9.121094 27.742188 C 8.898438 28 8.660156 28.269531 8.414062 28.539062 " fill-opacity="1" fill-rule="nonzero"/><g clip-path="url(#id3)"><path fill="rgb(100%, 87.059021%, 34.899902%)" d="M 20.445312 15.847656 C 19.882812 15.847656 19.425781 16.378906 19.425781 17.035156 L 19.425781 24.617188 C 19.425781 24.714844 19.433594 24.804688 19.453125 24.894531 L 19.589844 27.929688 C 19.589844 28.820312 19.746094 29.648438 20.03125 30.378906 C 20.09375 30.53125 20.160156 30.683594 20.234375 30.828125 C 20.304688 30.972656 20.382812 31.113281 20.464844 31.25 C 20.6875 31.605469 20.945312 31.933594 21.238281 32.222656 C 21.191406 34.808594 21.097656 38.191406 20.835938 39.554688 L 29.671875 39.554688 C 29.253906 38.390625 29.175781 34.714844 29.277344 32.046875 C 29.3125 32.007812 29.347656 31.964844 29.386719 31.925781 C 29.558594 31.785156 29.722656 31.625 29.875 31.445312 C 29.972656 31.328125 30.066406 31.203125 30.15625 31.074219 C 30.25 30.945312 30.332031 30.8125 30.414062 30.679688 C 30.628906 30.320312 30.8125 29.945312 30.96875 29.589844 C 31.136719 29.214844 32.273438 26.292969 35.203125 25.808594 C 35.722656 25.722656 36.160156 25.277344 36.027344 24.601562 C 35.917969 24.054688 35.292969 23.648438 34.855469 23.484375 C 34.453125 23.332031 34.003906 23.257812 33.550781 23.257812 C 32.492188 23.257812 31.402344 23.664062 30.742188 24.421875 C 30.734375 24.425781 30.710938 24.433594 30.675781 24.4375 L 30.667969 24.246094 L 30.667969 14.804688 C 30.667969 14.746094 30.660156 14.6875 30.65625 14.628906 C 30.582031 13.921875 30.078125 13.371094 29.464844 13.371094 C 29.082031 13.371094 28.738281 13.585938 28.519531 13.921875 C 28.359375 14.164062 28.261719 14.472656 28.261719 14.804688 L 28.261719 21.308594 C 28.050781 21.273438 27.824219 21.246094 27.589844 21.226562 L 27.589844 13.1875 C 27.589844 12.332031 27.035156 11.640625 26.351562 11.640625 C 25.667969 11.640625 25.117188 12.332031 25.117188 13.1875 L 25.117188 21.183594 C 25.070312 21.183594 25.023438 21.183594 24.976562 21.183594 C 24.851562 21.183594 24.722656 21.1875 24.589844 21.1875 C 24.535156 21.1875 24.480469 21.1875 24.425781 21.1875 L 24.425781 13.847656 C 24.425781 13.785156 24.421875 13.722656 24.414062 13.664062 C 24.335938 13.011719 23.839844 12.507812 23.242188 12.507812 C 22.792969 12.507812 22.40625 12.785156 22.203125 13.199219 C 22.128906 13.347656 22.082031 13.515625 22.0625 13.695312 C 22.058594 13.746094 22.054688 13.796875 22.054688 13.847656 L 22.054688 21.207031 C 21.992188 21.210938 21.933594 21.21875 21.875 21.222656 C 21.734375 21.234375 21.597656 21.25 21.46875 21.269531 L 21.46875 17.015625 C 21.464844 16.738281 21.378906 16.480469 21.234375 16.277344 C 21.046875 16.015625 20.765625 15.847656 20.445312 15.847656 " fill-opacity="1" fill-rule="nonzero"/></g><g clip-path="url(#id4)"><path fill="rgb(100%, 87.059021%, 34.899902%)" d="M 36.5625 35.527344 L 36.195312 35.894531 L 36.820312 36.523438 L 40.199219 39.917969 L 41.167969 40.890625 L 48.664062 33.363281 L 43.691406 28.371094 L 43.242188 28.820312 L 42.917969 29.148438 L 42.589844 29.476562 L 36.890625 35.199219 L 36.5625 35.527344 " fill-opacity="1" fill-rule="nonzero"/></g><path fill="rgb(100%, 87.059021%, 34.899902%)" d="M 5.667969 30.726562 L 5.996094 31.058594 L 11.796875 36.878906 L 12.125 37.207031 L 12.453125 37.539062 L 12.628906 37.710938 L 14.4375 35.894531 L 13.480469 34.9375 L 7.789062 29.222656 L 6.9375 28.371094 L 5.128906 30.1875 L 5.34375 30.398438 L 5.667969 30.726562 " fill-opacity="1" fill-rule="nonzero"/></svg>