<svg xmlns="http://www.w3.org/2000/svg" xmlns:xlink="http://www.w3.org/1999/xlink" width="70" zoomAndPan="magnify" viewBox="0 0 52.5 52.499999" height="70" preserveAspectRatio="xMidYMid meet" version="1.0"><defs><clipPath id="id1"><path d="M 15 2.496094 L 38 2.496094 L 38 25 L 15 25 Z M 15 2.496094 " clip-rule="nonzero"/></clipPath><clipPath id="id2"><path d="M 2.234375 24 L 16 24 L 16 48 L 2.234375 48 Z M 2.234375 24 " clip-rule="nonzero"/></clipPath><clipPath id="id3"><path d="M 19 28 L 33 28 L 33 50.496094 L 19 50.496094 Z M 19 28 " clip-rule="nonzero"/></clipPath><clipPath id="id4"><path d="M 37 25 L 50.234375 25 L 50.234375 49 L 37 49 Z M 37 25 " clip-rule="nonzero"/></clipPath></defs><g clip-path="url(#id1)"><path fill="rgb(21.958923%, 71.369934%, 100%)" d="M 37.433594 16.09375 L 37.433594 11.292969 L 34.691406 11.292969 C 34.503906 10.628906 34.246094 9.996094 33.914062 9.40625 L 35.847656 7.472656 L 32.453125 4.078125 L 30.519531 6.011719 C 29.929688 5.683594 29.296875 5.421875 28.632812 5.234375 L 28.632812 2.496094 L 23.832031 2.496094 L 23.832031 5.234375 C 23.167969 5.421875 22.535156 5.683594 21.945312 6.011719 L 20.011719 4.078125 L 16.617188 7.472656 L 18.550781 9.40625 C 18.21875 9.996094 17.960938 10.628906 17.773438 11.292969 L 15.03125 11.292969 L 15.03125 16.09375 L 17.773438 16.09375 C 17.960938 16.757812 18.21875 17.390625 18.550781 17.980469 L 16.617188 19.917969 L 20.011719 23.3125 L 21.945312 21.375 C 22.535156 21.707031 23.167969 21.964844 23.832031 22.152344 L 23.832031 24.894531 L 28.632812 24.894531 L 28.632812 22.152344 C 29.296875 21.964844 29.929688 21.707031 30.519531 21.375 L 32.453125 23.3125 L 35.847656 19.917969 L 33.914062 17.980469 C 34.246094 17.390625 34.503906 16.757812 34.691406 16.09375 Z M 26.234375 19.292969 C 23.140625 19.292969 20.632812 16.785156 20.632812 13.695312 C 20.632812 10.601562 23.140625 8.09375 26.234375 8.09375 C 29.324219 8.09375 31.832031 10.601562 31.832031 13.695312 C 31.832031 16.785156 29.324219 19.292969 26.234375 19.292969 Z M 26.234375 19.292969 " fill-opacity="1" fill-rule="nonzero"/></g><path fill="rgb(21.958923%, 71.369934%, 100%)" d="M 7.832031 13.695312 L 7.832031 23.292969 L 9.433594 23.292969 L 9.433594 14.496094 L 12.632812 14.496094 L 12.632812 12.894531 L 8.632812 12.894531 C 8.191406 12.894531 7.832031 13.253906 7.832031 13.695312 Z M 7.832031 13.695312 " fill-opacity="1" fill-rule="nonzero"/><path fill="rgb(21.958923%, 71.369934%, 100%)" d="M 44.632812 23.292969 L 44.632812 13.695312 C 44.632812 13.253906 44.273438 12.894531 43.832031 12.894531 L 39.832031 12.894531 L 39.832031 14.496094 L 43.03125 14.496094 L 43.03125 23.292969 Z M 44.632812 23.292969 " fill-opacity="1" fill-rule="nonzero"/><g clip-path="url(#id2)"><path fill="rgb(21.958923%, 71.369934%, 100%)" d="M 15.03125 40.09375 C 15.03125 37.269531 13.199219 34.875 10.660156 34.027344 C 12.132812 33.339844 13.210938 31.945312 13.398438 30.25 C 13.421875 30.066406 13.433594 29.882812 13.433594 29.695312 C 13.433594 29.539062 13.425781 29.386719 13.410156 29.253906 C 13.183594 26.808594 11.085938 24.894531 8.632812 24.894531 C 6.179688 24.894531 4.082031 26.808594 3.855469 29.238281 C 3.839844 29.386719 3.832031 29.539062 3.832031 29.695312 C 3.832031 29.882812 3.839844 30.066406 3.863281 30.226562 C 4.050781 31.9375 5.132812 33.339844 6.605469 34.027344 C 4.066406 34.875 2.234375 37.269531 2.234375 40.09375 L 2.234375 47.292969 L 15.03125 47.292969 Z M 5.453125 30.03125 C 5.4375 29.921875 5.433594 29.8125 5.433594 29.695312 C 5.433594 29.597656 5.4375 29.507812 5.449219 29.402344 C 5.480469 29.058594 5.578125 28.738281 5.710938 28.433594 C 6.574219 27.917969 7.570312 27.613281 8.632812 27.613281 C 9.695312 27.613281 10.6875 27.917969 11.550781 28.433594 C 11.6875 28.738281 11.785156 29.066406 11.816406 29.414062 C 11.828125 29.507812 11.832031 29.597656 11.832031 29.695312 C 11.832031 29.8125 11.828125 29.921875 11.8125 30.054688 C 11.632812 31.671875 10.265625 32.894531 8.632812 32.894531 C 7 32.894531 5.632812 31.671875 5.453125 30.03125 Z M 8.632812 43.292969 L 7.03125 40.894531 L 8.457031 34.476562 C 8.515625 34.480469 8.574219 34.496094 8.632812 34.496094 C 8.691406 34.496094 8.746094 34.480469 8.808594 34.476562 L 10.234375 40.894531 Z M 8.632812 43.292969 " fill-opacity="1" fill-rule="nonzero"/></g><g clip-path="url(#id3)"><path fill="rgb(21.958923%, 71.369934%, 100%)" d="M 19.832031 43.292969 L 19.832031 50.496094 L 32.632812 50.496094 L 32.632812 43.292969 C 32.632812 40.46875 30.800781 38.078125 28.261719 37.226562 C 29.734375 36.539062 30.8125 35.144531 31 33.449219 C 31.023438 33.265625 31.03125 33.085938 31.03125 32.894531 C 31.03125 32.738281 31.023438 32.589844 31.007812 32.453125 C 30.785156 30.007812 28.6875 28.09375 26.234375 28.09375 C 23.777344 28.09375 21.679688 30.007812 21.457031 32.441406 C 21.441406 32.589844 21.433594 32.738281 21.433594 32.894531 C 21.433594 33.085938 21.441406 33.265625 21.464844 33.429688 C 21.652344 35.140625 22.734375 36.539062 24.203125 37.226562 C 21.664062 38.078125 19.832031 40.46875 19.832031 43.292969 Z M 26.234375 46.496094 L 24.632812 44.09375 L 26.058594 37.679688 C 26.117188 37.679688 26.171875 37.695312 26.234375 37.695312 C 26.292969 37.695312 26.347656 37.679688 26.40625 37.679688 L 27.832031 44.09375 Z M 23.050781 33.234375 C 23.035156 33.121094 23.03125 33.011719 23.03125 32.894531 C 23.03125 32.796875 23.039062 32.707031 23.050781 32.601562 C 23.082031 32.257812 23.179688 31.9375 23.308594 31.636719 C 24.175781 31.117188 25.167969 30.8125 26.234375 30.8125 C 27.296875 30.8125 28.289062 31.117188 29.152344 31.632812 C 29.289062 31.941406 29.386719 32.265625 29.417969 32.613281 C 29.429688 32.707031 29.433594 32.796875 29.433594 32.894531 C 29.433594 33.011719 29.429688 33.121094 29.410156 33.253906 C 29.234375 34.871094 27.867188 36.09375 26.234375 36.09375 C 24.597656 36.09375 23.234375 34.871094 23.050781 33.234375 Z M 23.050781 33.234375 " fill-opacity="1" fill-rule="nonzero"/></g><g clip-path="url(#id4)"><path fill="rgb(21.958923%, 71.369934%, 100%)" d="M 45.863281 34.828125 C 47.332031 34.140625 48.414062 32.746094 48.597656 31.046875 C 48.625 30.867188 48.632812 30.683594 48.632812 30.496094 C 48.632812 30.335938 48.625 30.1875 48.609375 30.054688 C 48.382812 27.609375 46.285156 25.695312 43.832031 25.695312 C 41.378906 25.695312 39.28125 27.609375 39.058594 30.039062 C 39.039062 30.1875 39.03125 30.335938 39.03125 30.496094 C 39.03125 30.683594 39.042969 30.867188 39.0625 31.027344 C 39.25 32.738281 40.332031 34.140625 41.804688 34.828125 C 39.265625 35.675781 37.433594 38.070312 37.433594 40.894531 L 37.433594 48.09375 L 50.234375 48.09375 L 50.234375 40.894531 C 50.234375 38.070312 48.402344 35.675781 45.863281 34.828125 Z M 40.652344 30.832031 C 40.636719 30.722656 40.632812 30.609375 40.632812 30.496094 C 40.632812 30.398438 40.636719 30.308594 40.648438 30.199219 C 40.679688 29.859375 40.777344 29.539062 40.910156 29.234375 C 41.777344 28.71875 42.769531 28.414062 43.832031 28.414062 C 44.894531 28.414062 45.886719 28.714844 46.753906 29.234375 C 46.886719 29.539062 46.984375 29.867188 47.019531 30.214844 C 47.027344 30.308594 47.03125 30.398438 47.03125 30.496094 C 47.03125 30.609375 47.027344 30.722656 47.011719 30.851562 C 46.832031 32.472656 45.464844 33.695312 43.832031 33.695312 C 42.199219 33.695312 40.832031 32.472656 40.652344 30.832031 Z M 43.832031 44.09375 L 42.234375 41.695312 L 43.65625 35.277344 C 43.71875 35.28125 43.773438 35.292969 43.832031 35.292969 C 43.890625 35.292969 43.949219 35.28125 44.007812 35.277344 L 45.433594 41.695312 Z M 43.832031 44.09375 " fill-opacity="1" fill-rule="nonzero"/></g></svg>