<svg xmlns="http://www.w3.org/2000/svg" xmlns:xlink="http://www.w3.org/1999/xlink" width="70" zoomAndPan="magnify" viewBox="0 0 52.5 52.499999" height="70" preserveAspectRatio="xMidYMid meet" version="1.0"><defs><clipPath id="id1"><path d="M 0 0 L 52.003906 0 L 52.003906 52.003906 L 0 52.003906 Z M 0 0 " clip-rule="nonzero"/></clipPath><clipPath id="id2"><path d="M 3.269531 5.25 L 31 5.25 L 31 34 L 3.269531 34 Z M 3.269531 5.25 " clip-rule="nonzero"/></clipPath></defs><g clip-path="url(#id1)"><path fill="rgb(100%, 100%, 100%)" d="M 0 0 L 52.5 0 L 52.5 60 L 0 60 Z M 0 0 " fill-opacity="1" fill-rule="nonzero"/><path fill="rgb(100%, 100%, 100%)" d="M 0 0 L 52.5 0 L 52.5 52.5 L 0 52.5 Z M 0 0 " fill-opacity="1" fill-rule="nonzero"/><path fill="rgb(100%, 100%, 100%)" d="M 0 0 L 52.5 0 L 52.5 52.5 L 0 52.5 Z M 0 0 " fill-opacity="1" fill-rule="nonzero"/><path fill="rgb(100%, 100%, 100%)" d="M 0 0 L 52.5 0 L 52.5 52.5 L 0 52.5 Z M 0 0 " fill-opacity="1" fill-rule="nonzero"/></g><path fill="rgb(100%, 34.118652%, 34.118652%)" d="M 48.703125 28.03125 C 49.023438 26.824219 48.855469 25.53125 48.230469 24.445312 C 47.605469 23.363281 46.582031 22.570312 45.378906 22.25 C 41.347656 21.164062 34.269531 19.257812 30.242188 18.175781 C 29.039062 17.847656 27.753906 18.019531 26.675781 18.644531 C 25.597656 19.273438 24.808594 20.300781 24.488281 21.515625 C 23.667969 24.585938 22.414062 29.28125 21.648438 32.15625 C 21.257812 33.617188 21.503906 35.90625 22.5 38.242188 C 23.914062 41.554688 26.792969 44.945312 30.917969 46.058594 C 35.042969 47.167969 39.222656 45.675781 42.09375 43.519531 C 44.121094 41.996094 45.472656 40.132812 45.863281 38.675781 C 46.191406 37.441406 46.609375 35.878906 47.042969 34.253906 C 47.265625 33.414062 46.769531 32.550781 45.933594 32.324219 C 45.097656 32.097656 44.242188 32.597656 44.015625 33.4375 C 43.582031 35.0625 43.164062 36.625 42.835938 37.859375 C 42.574219 38.832031 41.570312 39.984375 40.21875 40.996094 C 38.03125 42.636719 34.867188 43.859375 31.726562 43.015625 C 28.585938 42.171875 26.457031 39.523438 25.378906 37 C 24.714844 35.445312 24.414062 33.941406 24.675781 32.972656 C 25.441406 30.09375 26.695312 25.398438 27.515625 22.328125 C 27.621094 21.925781 27.882812 21.582031 28.242188 21.371094 C 28.601562 21.164062 29.03125 21.109375 29.433594 21.214844 C 33.460938 22.296875 40.539062 24.203125 44.566406 25.289062 C 44.96875 25.398438 45.3125 25.660156 45.515625 26.019531 C 45.722656 26.382812 45.78125 26.8125 45.675781 27.214844 C 45.449219 28.054688 45.949219 28.917969 46.785156 29.144531 C 47.617188 29.367188 48.480469 28.871094 48.703125 28.03125 " fill-opacity="1" fill-rule="evenodd"/><path fill="rgb(100%, 34.118652%, 34.118652%)" d="M 31.648438 25.070312 C 30.8125 24.847656 29.953125 25.34375 29.730469 26.183594 C 29.503906 27.023438 30 27.886719 30.835938 28.109375 C 31.671875 28.335938 32.53125 27.835938 32.753906 27 C 32.980469 26.160156 32.484375 25.296875 31.648438 25.070312 " fill-opacity="1" fill-rule="evenodd"/><path fill="rgb(100%, 34.118652%, 34.118652%)" d="M 40.726562 27.515625 C 39.890625 27.289062 39.035156 27.789062 38.808594 28.628906 C 38.585938 29.46875 39.082031 30.332031 39.917969 30.554688 C 40.75 30.78125 41.613281 30.28125 41.835938 29.441406 C 42.0625 28.601562 41.5625 27.738281 40.726562 27.515625 " fill-opacity="1" fill-rule="evenodd"/><path fill="rgb(100%, 34.118652%, 34.118652%)" d="M 30.027344 31.152344 C 29.191406 30.925781 28.332031 31.425781 28.105469 32.265625 C 27.210938 35.625 29.195312 39.078125 32.539062 39.972656 C 35.882812 40.875 39.320312 38.882812 40.214844 35.523438 C 40.4375 34.683594 39.941406 33.820312 39.105469 33.59375 Z M 31.132812 34.707031 C 31.414062 35.761719 32.230469 36.632812 33.347656 36.933594 C 34.46875 37.234375 35.609375 36.886719 36.375 36.121094 L 31.132812 34.707031 " fill-opacity="1" fill-rule="evenodd"/><path fill="rgb(100%, 34.118652%, 34.118652%)" d="M 11.558594 15.015625 C 10.722656 15.238281 10.222656 16.101562 10.449219 16.941406 C 10.675781 17.78125 11.535156 18.28125 12.371094 18.054688 C 13.203125 17.832031 13.699219 16.96875 13.476562 16.128906 C 13.25 15.289062 12.394531 14.789062 11.558594 15.015625 " fill-opacity="1" fill-rule="evenodd"/><path fill="rgb(100%, 34.118652%, 34.118652%)" d="M 20.636719 12.570312 C 19.800781 12.796875 19.304688 13.660156 19.53125 14.5 C 19.753906 15.335938 20.613281 15.835938 21.449219 15.609375 C 22.285156 15.382812 22.78125 14.523438 22.554688 13.683594 C 22.332031 12.84375 21.472656 12.34375 20.636719 12.570312 " fill-opacity="1" fill-rule="evenodd"/><path fill="rgb(100%, 34.118652%, 34.118652%)" d="M 15.910156 25.25 C 15.8125 24.882812 16.035156 24.523438 16.328125 24.1875 C 16.824219 23.621094 17.609375 23.160156 18.527344 22.914062 C 19.453125 22.664062 20.355469 22.667969 21.070312 22.910156 C 21.492188 23.054688 21.863281 23.253906 21.960938 23.621094 C 22.1875 24.457031 23.046875 24.957031 23.882812 24.734375 C 24.714844 24.507812 25.210938 23.644531 24.988281 22.804688 C 24.699219 21.71875 23.945312 20.828125 22.835938 20.253906 C 21.523438 19.570312 19.648438 19.355469 17.71875 19.871094 C 15.789062 20.390625 14.277344 21.523438 13.472656 22.773438 C 12.800781 23.824219 12.59375 24.976562 12.882812 26.0625 C 13.105469 26.902344 13.964844 27.402344 14.800781 27.175781 C 15.636719 26.953125 16.132812 26.089844 15.910156 25.25 " fill-opacity="1" fill-rule="evenodd"/><g clip-path="url(#id2)"><path fill="rgb(100%, 34.118652%, 34.118652%)" d="M 24.449219 32.199219 C 24.785156 31.988281 25.027344 31.660156 25.125 31.273438 L 27.515625 22.328125 C 27.621094 21.925781 27.882812 21.582031 28.242188 21.371094 C 28.480469 21.234375 28.742188 21.164062 29.011719 21.160156 C 29.496094 21.15625 29.953125 20.925781 30.242188 20.539062 C 30.539062 20.152344 30.636719 19.652344 30.511719 19.179688 L 27.796875 9.011719 C 27.476562 7.804688 26.6875 6.773438 25.609375 6.144531 C 24.53125 5.519531 23.246094 5.347656 22.042969 5.671875 C 18.015625 6.757812 10.9375 8.664062 6.90625 9.75 C 5.703125 10.070312 4.679688 10.863281 4.054688 11.945312 C 3.429688 13.03125 3.261719 14.320312 3.582031 15.53125 C 4.402344 18.601562 5.65625 23.296875 6.421875 26.175781 C 6.8125 27.632812 8.164062 29.496094 10.191406 31.015625 C 13.0625 33.175781 17.242188 34.664062 21.367188 33.554688 C 22.488281 33.253906 23.515625 32.785156 24.449219 32.199219 Z M 27.070312 18.441406 L 24.773438 9.824219 C 24.664062 9.421875 24.402344 9.078125 24.042969 8.871094 C 23.683594 8.664062 23.253906 8.605469 22.851562 8.710938 C 18.824219 9.796875 11.746094 11.703125 7.71875 12.789062 C 7.316406 12.898438 6.972656 13.160156 6.769531 13.519531 C 6.5625 13.882812 6.503906 14.3125 6.609375 14.714844 C 7.429688 17.789062 8.683594 22.480469 9.449219 25.359375 C 9.710938 26.332031 10.714844 27.480469 12.066406 28.496094 C 14.253906 30.136719 17.417969 31.359375 20.558594 30.515625 C 21.167969 30.351562 21.734375 30.117188 22.269531 29.832031 L 24.488281 21.515625 C 24.808594 20.300781 25.597656 19.273438 26.675781 18.644531 C 26.804688 18.570312 26.933594 18.503906 27.070312 18.441406 " fill-opacity="1" fill-rule="evenodd"/></g></svg>