<svg xmlns="http://www.w3.org/2000/svg" xmlns:xlink="http://www.w3.org/1999/xlink" width="70" zoomAndPan="magnify" viewBox="0 0 52.5 52.499999" height="70" preserveAspectRatio="xMidYMid meet" version="1.0"><path fill="rgb(49.409485%, 85.099792%, 34.118652%)" d="M 23.507812 35.652344 C 23.015625 35.652344 22.527344 35.625 22.039062 35.5625 C 21.550781 35.503906 21.066406 35.414062 20.589844 35.292969 C 20.109375 35.175781 19.640625 35.027344 19.183594 34.851562 C 18.722656 34.671875 18.277344 34.46875 17.839844 34.238281 C 17.40625 34.003906 16.988281 33.746094 16.585938 33.464844 C 16.183594 33.179688 15.800781 32.871094 15.433594 32.542969 C 15.070312 32.210938 14.726562 31.859375 14.40625 31.488281 C 14.082031 31.113281 13.785156 30.722656 13.511719 30.3125 C 13.238281 29.90625 12.992188 29.480469 12.769531 29.039062 C 12.546875 28.601562 12.355469 28.148438 12.1875 27.683594 C 12.023438 27.222656 11.886719 26.75 11.777344 26.269531 C 11.667969 25.789062 11.589844 25.304688 11.542969 24.8125 C 11.496094 24.324219 11.476562 23.832031 11.488281 23.339844 C 11.5 22.847656 11.542969 22.359375 11.613281 21.871094 C 11.6875 21.382812 11.789062 20.902344 11.921875 20.429688 C 12.050781 19.953125 12.210938 19.488281 12.398438 19.035156 C 12.589844 18.578125 12.804688 18.136719 13.046875 17.710938 C 13.289062 17.28125 13.558594 16.867188 13.851562 16.472656 C 14.144531 16.078125 14.460938 15.703125 14.800781 15.34375 C 15.140625 14.988281 15.5 14.65625 15.882812 14.34375 C 16.261719 14.03125 16.660156 13.742188 17.078125 13.480469 C 17.492188 13.214844 17.921875 12.980469 18.367188 12.769531 C 18.8125 12.558594 19.269531 12.375 19.738281 12.222656 C 20.207031 12.066406 20.679688 11.941406 21.164062 11.847656 C 21.648438 11.75 22.132812 11.683594 22.625 11.648438 C 23.117188 11.613281 23.609375 11.605469 24.097656 11.628906 C 24.589844 11.65625 25.078125 11.710938 25.566406 11.792969 C 26.050781 11.878906 26.527344 11.992188 27 12.136719 C 27.46875 12.277344 27.929688 12.449219 28.382812 12.648438 C 28.832031 12.851562 29.265625 13.078125 29.6875 13.328125 C 30.113281 13.582031 30.515625 13.863281 30.90625 14.164062 C 31.292969 14.46875 31.660156 14.792969 32.007812 15.140625 C 32.847656 15.984375 33.550781 16.925781 34.109375 17.972656 C 34.671875 19.023438 35.070312 20.128906 35.300781 21.296875 C 35.53125 22.460938 35.589844 23.636719 35.472656 24.816406 C 35.359375 26 35.070312 27.140625 34.617188 28.238281 C 34.160156 29.339844 33.558594 30.347656 32.804688 31.265625 C 32.046875 32.183594 31.175781 32.972656 30.1875 33.632812 C 29.199219 34.292969 28.136719 34.792969 27 35.140625 C 25.859375 35.484375 24.699219 35.65625 23.507812 35.652344 Z M 23.507812 14.265625 C 23.152344 14.261719 22.792969 14.28125 22.4375 14.324219 C 22.082031 14.363281 21.726562 14.425781 21.378906 14.503906 C 21.027344 14.585938 20.683594 14.6875 20.347656 14.804688 C 20.007812 14.925781 19.679688 15.066406 19.359375 15.222656 C 19.035156 15.382812 18.722656 15.558594 18.421875 15.75 C 18.121094 15.945312 17.832031 16.15625 17.554688 16.382812 C 17.273438 16.609375 17.011719 16.851562 16.761719 17.109375 C 16.511719 17.367188 16.277344 17.636719 16.058594 17.921875 C 15.839844 18.203125 15.636719 18.5 15.453125 18.808594 C 15.269531 19.113281 15.101562 19.429688 14.953125 19.757812 C 14.804688 20.085938 14.675781 20.417969 14.566406 20.757812 C 14.453125 21.101562 14.363281 21.445312 14.292969 21.796875 C 14.222656 22.148438 14.171875 22.503906 14.144531 22.863281 C 14.113281 23.21875 14.105469 23.578125 14.117188 23.9375 C 14.125 24.292969 14.160156 24.652344 14.210938 25.003906 C 14.261719 25.359375 14.335938 25.710938 14.425781 26.058594 C 14.519531 26.402344 14.632812 26.746094 14.761719 27.078125 C 14.894531 27.410156 15.042969 27.738281 15.214844 28.054688 C 15.382812 28.371094 15.570312 28.675781 15.773438 28.96875 C 15.976562 29.265625 16.195312 29.546875 16.433594 29.816406 C 16.667969 30.085938 16.917969 30.34375 17.183594 30.585938 C 17.449219 30.824219 17.730469 31.050781 18.019531 31.257812 C 18.3125 31.46875 18.613281 31.660156 18.925781 31.835938 C 19.242188 32.007812 19.5625 32.164062 19.894531 32.300781 C 20.226562 32.441406 20.5625 32.558594 20.90625 32.65625 C 21.253906 32.753906 21.601562 32.835938 21.957031 32.894531 C 22.308594 32.953125 22.664062 32.988281 23.023438 33.007812 C 23.382812 33.023438 23.738281 33.023438 24.097656 33 C 24.457031 32.976562 24.8125 32.933594 25.164062 32.867188 C 25.515625 32.804688 25.863281 32.71875 26.207031 32.617188 C 26.550781 32.511719 26.886719 32.386719 27.214844 32.246094 C 27.546875 32.101562 27.867188 31.941406 28.175781 31.761719 C 28.488281 31.582031 28.785156 31.386719 29.074219 31.175781 C 29.363281 30.960938 29.636719 30.730469 29.898438 30.484375 C 30.160156 30.242188 30.40625 29.980469 30.640625 29.707031 C 30.871094 29.433594 31.085938 29.148438 31.285156 28.851562 C 31.484375 28.550781 31.667969 28.242188 31.832031 27.925781 C 31.996094 27.605469 32.140625 27.277344 32.265625 26.941406 C 32.390625 26.605469 32.5 26.265625 32.585938 25.917969 C 32.671875 25.570312 32.738281 25.21875 32.785156 24.863281 C 32.832031 24.507812 32.859375 24.148438 32.863281 23.789062 C 32.871094 23.433594 32.855469 23.074219 32.820312 22.71875 C 32.785156 22.359375 32.730469 22.007812 32.652344 21.65625 C 32.578125 21.304688 32.480469 20.960938 32.367188 20.621094 C 32.25 20.28125 32.117188 19.949219 31.960938 19.625 C 31.808594 19.300781 31.636719 18.988281 31.449219 18.683594 C 31.257812 18.378906 31.050781 18.085938 30.828125 17.804688 C 30.605469 17.523438 30.367188 17.257812 30.113281 17.003906 C 29.238281 16.128906 28.226562 15.453125 27.082031 14.976562 C 25.941406 14.503906 24.75 14.265625 23.507812 14.265625 Z M 23.507812 14.265625 " fill-opacity="1" fill-rule="nonzero"/><path fill="rgb(49.409485%, 85.099792%, 34.118652%)" d="M 40.546875 42 C 40.183594 42 39.871094 41.867188 39.617188 41.609375 L 30.140625 32.140625 C 30.015625 32.015625 29.921875 31.875 29.851562 31.710938 C 29.785156 31.550781 29.753906 31.382812 29.753906 31.207031 C 29.753906 31.03125 29.785156 30.863281 29.851562 30.699219 C 29.921875 30.539062 30.015625 30.394531 30.140625 30.273438 C 30.261719 30.148438 30.40625 30.050781 30.566406 29.984375 C 30.730469 29.917969 30.898438 29.882812 31.074219 29.882812 C 31.25 29.882812 31.417969 29.917969 31.578125 29.984375 C 31.742188 30.050781 31.882812 30.148438 32.007812 30.273438 L 41.476562 39.75 C 41.664062 39.9375 41.785156 40.160156 41.835938 40.421875 C 41.890625 40.683594 41.863281 40.9375 41.761719 41.183594 C 41.660156 41.429688 41.5 41.628906 41.277344 41.777344 C 41.058594 41.925781 40.8125 42 40.546875 42 Z M 40.546875 42 " fill-opacity="1" fill-rule="nonzero"/></svg>